<mxfile host="65bd71144e">
    <diagram id="l4ouFOZRiKhJBsyQvsC5" name="Page-1">
        <mxGraphModel dx="4640" dy="2528" grid="0" gridSize="10" guides="1" tooltips="1" connect="1" arrows="1" fold="1" page="0" pageScale="1" pageWidth="850" pageHeight="1100" background="none" math="0" shadow="0">
            <root>
                <mxCell id="0"/>
                <mxCell id="1" parent="0"/>
                <mxCell id="49" style="edgeStyle=none;rounded=0;html=1;entryX=1;entryY=0.25;entryDx=0;entryDy=0;strokeWidth=1;fontSize=20;startArrow=diamondThin;startFill=0;endArrow=none;endFill=0;startSize=40;endSize=6;exitX=0.5;exitY=0;exitDx=0;exitDy=0;" parent="1" source="2" target="37" edge="1">
                    <mxGeometry relative="1" as="geometry">
                        <Array as="points">
                            <mxPoint x="330" y="120"/>
                        </Array>
                    </mxGeometry>
                </mxCell>
                <mxCell id="192" style="edgeStyle=none;rounded=0;html=1;entryX=0;entryY=0.5;entryDx=0;entryDy=0;fontSize=20;startArrow=none;startFill=0;endArrow=none;endFill=0;endSize=15;exitX=0.046;exitY=0.996;exitDx=0;exitDy=0;exitPerimeter=0;" parent="1" source="194" target="186" edge="1">
                    <mxGeometry relative="1" as="geometry"/>
                </mxCell>
                <mxCell id="2" value="User" style="swimlane;fontStyle=0;childLayout=stackLayout;horizontal=1;startSize=40;fillColor=none;horizontalStack=0;resizeParent=1;resizeParentMax=0;resizeLast=0;collapsible=1;marginBottom=0;fontSize=20;" parent="1" vertex="1">
                    <mxGeometry x="150" y="260" width="360" height="520" as="geometry"/>
                </mxCell>
                <mxCell id="3" value="name: string" style="text;strokeColor=none;fillColor=none;align=left;verticalAlign=top;spacingLeft=4;spacingRight=4;overflow=hidden;rotatable=0;points=[[0,0.5],[1,0.5]];portConstraint=eastwest;fontSize=20;" parent="2" vertex="1">
                    <mxGeometry y="40" width="360" height="40" as="geometry"/>
                </mxCell>
                <mxCell id="4" value="username: string&#10;" style="text;strokeColor=none;fillColor=none;align=left;verticalAlign=top;spacingLeft=4;spacingRight=4;overflow=hidden;rotatable=0;points=[[0,0.5],[1,0.5]];portConstraint=eastwest;fontSize=20;" parent="2" vertex="1">
                    <mxGeometry y="80" width="360" height="40" as="geometry"/>
                </mxCell>
                <mxCell id="5" value="birthday: date" style="text;strokeColor=none;fillColor=none;align=left;verticalAlign=top;spacingLeft=4;spacingRight=4;overflow=hidden;rotatable=0;points=[[0,0.5],[1,0.5]];portConstraint=eastwest;fontSize=20;" parent="2" vertex="1">
                    <mxGeometry y="120" width="360" height="40" as="geometry"/>
                </mxCell>
                <mxCell id="7" value="country: string" style="text;strokeColor=none;fillColor=none;align=left;verticalAlign=top;spacingLeft=4;spacingRight=4;overflow=hidden;rotatable=0;points=[[0,0.5],[1,0.5]];portConstraint=eastwest;fontSize=20;" parent="2" vertex="1">
                    <mxGeometry y="160" width="360" height="40" as="geometry"/>
                </mxCell>
                <mxCell id="9" value="gender: string" style="text;strokeColor=none;fillColor=none;align=left;verticalAlign=top;spacingLeft=4;spacingRight=4;overflow=hidden;rotatable=0;points=[[0,0.5],[1,0.5]];portConstraint=eastwest;fontSize=20;" parent="2" vertex="1">
                    <mxGeometry y="200" width="360" height="40" as="geometry"/>
                </mxCell>
                <mxCell id="23" value="followers: integer" style="text;strokeColor=none;fillColor=none;align=left;verticalAlign=top;spacingLeft=4;spacingRight=4;overflow=hidden;rotatable=0;points=[[0,0.5],[1,0.5]];portConstraint=eastwest;fontSize=20;" parent="2" vertex="1">
                    <mxGeometry y="240" width="360" height="40" as="geometry"/>
                </mxCell>
                <mxCell id="24" value="url: URL    " style="text;strokeColor=none;fillColor=none;align=left;verticalAlign=top;spacingLeft=4;spacingRight=4;overflow=hidden;rotatable=0;points=[[0,0.5],[1,0.5]];portConstraint=eastwest;fontSize=20;" parent="2" vertex="1">
                    <mxGeometry y="280" width="360" height="40" as="geometry"/>
                </mxCell>
                <mxCell id="34" value="email: email" style="text;strokeColor=none;fillColor=none;align=left;verticalAlign=top;spacingLeft=4;spacingRight=4;overflow=hidden;rotatable=0;points=[[0,0.5],[1,0.5]];portConstraint=eastwest;fontSize=20;" parent="2" vertex="1">
                    <mxGeometry y="320" width="360" height="40" as="geometry"/>
                </mxCell>
                <mxCell id="35" value="password: string" style="text;strokeColor=none;fillColor=none;align=left;verticalAlign=top;spacingLeft=4;spacingRight=4;overflow=hidden;rotatable=0;points=[[0,0.5],[1,0.5]];portConstraint=eastwest;fontSize=20;" parent="2" vertex="1">
                    <mxGeometry y="360" width="360" height="40" as="geometry"/>
                </mxCell>
                <mxCell id="117" value="reputation: integer" style="text;strokeColor=none;fillColor=none;align=left;verticalAlign=top;spacingLeft=4;spacingRight=4;overflow=hidden;rotatable=0;points=[[0,0.5],[1,0.5]];portConstraint=eastwest;fontSize=20;" parent="2" vertex="1">
                    <mxGeometry y="400" width="360" height="40" as="geometry"/>
                </mxCell>
                <mxCell id="254" value="following: integer" style="text;strokeColor=none;fillColor=none;align=left;verticalAlign=top;spacingLeft=4;spacingRight=4;overflow=hidden;rotatable=0;points=[[0,0.5],[1,0.5]];portConstraint=eastwest;fontSize=20;" parent="2" vertex="1">
                    <mxGeometry y="440" width="360" height="40" as="geometry"/>
                </mxCell>
                <mxCell id="255" value="blocked: integer" style="text;strokeColor=none;fillColor=none;align=left;verticalAlign=top;spacingLeft=4;spacingRight=4;overflow=hidden;rotatable=0;points=[[0,0.5],[1,0.5]];portConstraint=eastwest;fontSize=20;" parent="2" vertex="1">
                    <mxGeometry y="480" width="360" height="40" as="geometry"/>
                </mxCell>
                <mxCell id="46" style="edgeStyle=none;html=1;fontSize=20;endArrow=none;endFill=0;strokeWidth=1;rounded=0;endSize=6;startArrow=diamondThin;startFill=0;startSize=40;exitX=-0.005;exitY=0.06;exitDx=0;exitDy=0;exitPerimeter=0;" parent="1" source="13" edge="1">
                    <mxGeometry relative="1" as="geometry">
                        <mxPoint x="-662" y="180" as="targetPoint"/>
                        <Array as="points">
                            <mxPoint x="-662" y="382"/>
                        </Array>
                        <mxPoint x="-500" y="440" as="sourcePoint"/>
                    </mxGeometry>
                </mxCell>
                <mxCell id="127" style="edgeStyle=none;html=1;entryX=0.001;entryY=0.255;entryDx=0;entryDy=0;rounded=0;endArrow=none;endFill=0;entryPerimeter=0;" parent="1" source="10" target="120" edge="1">
                    <mxGeometry relative="1" as="geometry">
                        <Array as="points">
                            <mxPoint x="-320" y="-80"/>
                        </Array>
                    </mxGeometry>
                </mxCell>
                <mxCell id="10" value="Post" style="swimlane;fontStyle=0;childLayout=stackLayout;horizontal=1;startSize=40;fillColor=none;horizontalStack=0;resizeParent=1;resizeParentMax=0;resizeLast=0;collapsible=1;marginBottom=0;fontSize=20;" parent="1" vertex="1">
                    <mxGeometry x="-500" y="260" width="360" height="410" as="geometry"/>
                </mxCell>
                <mxCell id="11" value="title: string" style="text;strokeColor=none;fillColor=none;align=left;verticalAlign=top;spacingLeft=4;spacingRight=4;overflow=hidden;rotatable=0;points=[[0,0.5],[1,0.5]];portConstraint=eastwest;fontSize=20;" parent="10" vertex="1">
                    <mxGeometry y="40" width="360" height="40" as="geometry"/>
                </mxCell>
                <mxCell id="12" value="caption: string" style="text;strokeColor=none;fillColor=none;align=left;verticalAlign=top;spacingLeft=4;spacingRight=4;overflow=hidden;rotatable=0;points=[[0,0.5],[1,0.5]];portConstraint=eastwest;fontSize=20;" parent="10" vertex="1">
                    <mxGeometry y="80" width="360" height="40" as="geometry"/>
                </mxCell>
                <mxCell id="13" value="postdate: date" style="text;strokeColor=none;fillColor=none;align=left;verticalAlign=top;spacingLeft=4;spacingRight=4;overflow=hidden;rotatable=0;points=[[0,0.5],[1,0.5]];portConstraint=eastwest;fontSize=20;" parent="10" vertex="1">
                    <mxGeometry y="120" width="360" height="40" as="geometry"/>
                </mxCell>
                <mxCell id="93" value="upvotes: integer" style="text;strokeColor=none;fillColor=none;align=left;verticalAlign=top;spacingLeft=4;spacingRight=4;overflow=hidden;rotatable=0;points=[[0,0.5],[1,0.5]];portConstraint=eastwest;fontSize=20;" parent="10" vertex="1">
                    <mxGeometry y="160" width="360" height="40" as="geometry"/>
                </mxCell>
                <mxCell id="94" value="downvotes: integer" style="text;strokeColor=none;fillColor=none;align=left;verticalAlign=top;spacingLeft=4;spacingRight=4;overflow=hidden;rotatable=0;points=[[0,0.5],[1,0.5]];portConstraint=eastwest;fontSize=20;" parent="10" vertex="1">
                    <mxGeometry y="200" width="360" height="40" as="geometry"/>
                </mxCell>
                <mxCell id="237" value="Constraints&#10;{ title: NOT NULL }&#10;{ caption: NOT NULL }&#10;{ upvotes: CHECK &gt;= 0 }&#10;{ downvotes: CHECK &gt;= 0}&#10;{post_id: PRIMARY KEY}" style="text;strokeColor=default;fillColor=none;align=left;verticalAlign=top;spacingLeft=4;spacingRight=4;overflow=hidden;rotatable=0;points=[[0,0.5],[1,0.5]];portConstraint=eastwest;fontSize=20;" parent="10" vertex="1">
                    <mxGeometry y="240" width="360" height="170" as="geometry"/>
                </mxCell>
                <mxCell id="17" style="edgeStyle=none;html=1;fontSize=20;endArrow=none;endFill=0;exitX=0.919;exitY=-0.039;exitDx=0;exitDy=0;exitPerimeter=0;" parent="1" source="20" edge="1">
                    <mxGeometry relative="1" as="geometry">
                        <mxPoint x="-140" y="358" as="targetPoint"/>
                    </mxGeometry>
                </mxCell>
                <mxCell id="20" value="*" style="text;html=1;align=center;verticalAlign=middle;resizable=0;points=[];autosize=1;strokeColor=none;fillColor=none;fontSize=20;" parent="1" vertex="1">
                    <mxGeometry x="120" y="360" width="30" height="40" as="geometry"/>
                </mxCell>
                <mxCell id="21" value="*" style="text;html=1;align=center;verticalAlign=middle;resizable=0;points=[];autosize=1;strokeColor=none;fillColor=none;fontSize=30;" parent="1" vertex="1">
                    <mxGeometry x="-145" y="355" width="40" height="50" as="geometry"/>
                </mxCell>
                <mxCell id="61" style="edgeStyle=none;rounded=0;html=1;strokeWidth=1;fontSize=20;startArrow=block;startFill=0;endArrow=none;endFill=0;startSize=20;endSize=6;" parent="1" source="37" edge="1">
                    <mxGeometry relative="1" as="geometry">
                        <mxPoint x="-650" y="60" as="targetPoint"/>
                    </mxGeometry>
                </mxCell>
                <mxCell id="37" value="Image" style="swimlane;fontStyle=0;childLayout=stackLayout;horizontal=1;startSize=40;fillColor=none;horizontalStack=0;resizeParent=1;resizeParentMax=0;resizeLast=0;collapsible=1;marginBottom=0;fontSize=20;" parent="1" vertex="1">
                    <mxGeometry x="-810" y="100" width="320" height="80" as="geometry"/>
                </mxCell>
                <mxCell id="38" value="path: string" style="text;strokeColor=none;fillColor=none;align=left;verticalAlign=top;spacingLeft=4;spacingRight=4;overflow=hidden;rotatable=0;points=[[0,0.5],[1,0.5]];portConstraint=eastwest;fontSize=20;" parent="37" vertex="1">
                    <mxGeometry y="40" width="320" height="40" as="geometry"/>
                </mxCell>
                <mxCell id="52" value="1" style="text;html=1;align=center;verticalAlign=middle;resizable=0;points=[];autosize=1;strokeColor=none;fillColor=none;fontSize=20;" parent="1" vertex="1">
                    <mxGeometry x="-490" y="120" width="30" height="40" as="geometry"/>
                </mxCell>
                <mxCell id="53" value="0..5" style="text;html=1;align=center;verticalAlign=middle;resizable=0;points=[];autosize=1;strokeColor=none;fillColor=none;fontSize=20;" parent="1" vertex="1">
                    <mxGeometry x="-670" y="180" width="60" height="40" as="geometry"/>
                </mxCell>
                <mxCell id="62" style="edgeStyle=none;rounded=0;html=1;strokeWidth=1;fontSize=20;startArrow=none;startFill=0;endArrow=none;endFill=0;startSize=20;endSize=6;" parent="1" source="54" edge="1">
                    <mxGeometry relative="1" as="geometry">
                        <mxPoint x="-650" y="60" as="targetPoint"/>
                        <Array as="points">
                            <mxPoint x="-427" y="60"/>
                        </Array>
                    </mxGeometry>
                </mxCell>
                <mxCell id="54" value="JPG" style="html=1;fontSize=20;" parent="1" vertex="1">
                    <mxGeometry x="-482.5" y="-10" width="110" height="50" as="geometry"/>
                </mxCell>
                <mxCell id="63" style="edgeStyle=none;rounded=0;html=1;strokeWidth=1;fontSize=20;startArrow=none;startFill=0;endArrow=none;endFill=0;startSize=20;endSize=6;" parent="1" source="55" edge="1">
                    <mxGeometry relative="1" as="geometry">
                        <mxPoint x="-572" y="60" as="targetPoint"/>
                    </mxGeometry>
                </mxCell>
                <mxCell id="55" value="PNG" style="html=1;fontSize=20;" parent="1" vertex="1">
                    <mxGeometry x="-627.5" y="-10" width="110" height="50" as="geometry"/>
                </mxCell>
                <mxCell id="64" style="edgeStyle=none;rounded=0;html=1;strokeWidth=1;fontSize=20;startArrow=none;startFill=0;endArrow=none;endFill=0;startSize=20;endSize=6;" parent="1" source="57" edge="1">
                    <mxGeometry relative="1" as="geometry">
                        <mxPoint x="-650" y="60" as="targetPoint"/>
                        <Array as="points">
                            <mxPoint x="-722" y="60"/>
                        </Array>
                    </mxGeometry>
                </mxCell>
                <mxCell id="57" value="SVG" style="html=1;fontSize=20;" parent="1" vertex="1">
                    <mxGeometry x="-777.5" y="-10" width="110" height="50" as="geometry"/>
                </mxCell>
                <mxCell id="65" style="edgeStyle=none;rounded=0;html=1;strokeWidth=1;fontSize=20;startArrow=none;startFill=0;endArrow=none;endFill=0;startSize=20;endSize=6;" parent="1" source="58" edge="1">
                    <mxGeometry relative="1" as="geometry">
                        <mxPoint x="-720" y="60" as="targetPoint"/>
                        <Array as="points">
                            <mxPoint x="-870" y="60"/>
                        </Array>
                    </mxGeometry>
                </mxCell>
                <mxCell id="58" value="GIF" style="html=1;fontSize=20;" parent="1" vertex="1">
                    <mxGeometry x="-927.5" y="-10" width="110" height="50" as="geometry"/>
                </mxCell>
                <mxCell id="66" value="&lt;font style=&quot;font-size: 16px;&quot;&gt;{disjoint, complete}&lt;/font&gt;" style="text;html=1;align=center;verticalAlign=middle;resizable=0;points=[];autosize=1;strokeColor=none;fillColor=none;fontSize=20;" parent="1" vertex="1">
                    <mxGeometry x="-620" y="50" width="160" height="40" as="geometry"/>
                </mxCell>
                <mxCell id="80" style="edgeStyle=none;rounded=0;html=1;strokeWidth=1;fontSize=16;startArrow=none;startFill=0;endArrow=diamondThin;endFill=1;startSize=20;endSize=40;" parent="1" source="71" edge="1">
                    <mxGeometry relative="1" as="geometry">
                        <mxPoint x="-320" y="670" as="targetPoint"/>
                        <Array as="points"/>
                    </mxGeometry>
                </mxCell>
                <mxCell id="115" style="edgeStyle=none;rounded=0;html=1;strokeWidth=1;fontSize=20;startArrow=diamondThin;startFill=0;endArrow=none;endFill=0;startSize=40;endSize=40;exitX=0.001;exitY=0.796;exitDx=0;exitDy=0;exitPerimeter=0;" parent="1" source="73" edge="1">
                    <mxGeometry relative="1" as="geometry">
                        <mxPoint x="-680" y="670" as="targetPoint"/>
                        <Array as="points">
                            <mxPoint x="-680" y="911"/>
                        </Array>
                        <mxPoint x="-503.1999999999998" y="930.4000000000001" as="sourcePoint"/>
                    </mxGeometry>
                </mxCell>
                <mxCell id="71" value="Comment" style="swimlane;fontStyle=0;childLayout=stackLayout;horizontal=1;startSize=40;fillColor=none;horizontalStack=0;resizeParent=1;resizeParentMax=0;resizeLast=0;collapsible=1;marginBottom=0;fontSize=20;" parent="1" vertex="1">
                    <mxGeometry x="-505" y="839" width="360" height="340" as="geometry"/>
                </mxCell>
                <mxCell id="73" value="caption: string" style="text;strokeColor=none;fillColor=none;align=left;verticalAlign=top;spacingLeft=4;spacingRight=4;overflow=hidden;rotatable=0;points=[[0,0.5],[1,0.5]];portConstraint=eastwest;fontSize=20;" parent="71" vertex="1">
                    <mxGeometry y="40" width="360" height="40" as="geometry"/>
                </mxCell>
                <mxCell id="74" value="commentdate: date" style="text;strokeColor=none;fillColor=none;align=left;verticalAlign=top;spacingLeft=4;spacingRight=4;overflow=hidden;rotatable=0;points=[[0,0.5],[1,0.5]];portConstraint=eastwest;fontSize=20;" parent="71" vertex="1">
                    <mxGeometry y="80" width="360" height="40" as="geometry"/>
                </mxCell>
                <mxCell id="95" value="upvotes: integer" style="text;strokeColor=none;fillColor=none;align=left;verticalAlign=top;spacingLeft=4;spacingRight=4;overflow=hidden;rotatable=0;points=[[0,0.5],[1,0.5]];portConstraint=eastwest;fontSize=20;" parent="71" vertex="1">
                    <mxGeometry y="120" width="360" height="40" as="geometry"/>
                </mxCell>
                <mxCell id="96" value="downvotes: integer" style="text;strokeColor=none;fillColor=none;align=left;verticalAlign=top;spacingLeft=4;spacingRight=4;overflow=hidden;rotatable=0;points=[[0,0.5],[1,0.5]];portConstraint=eastwest;fontSize=20;" parent="71" vertex="1">
                    <mxGeometry y="160" width="360" height="40" as="geometry"/>
                </mxCell>
                <mxCell id="236" value="Constraints&#10;{ caption: NOT NULL }&#10;{ upvotes: CHECK &gt;= 0 }&#10;{ downvotes: CHECK &gt;= 0&#10;comment_id: PRIMARY KEY}" style="text;strokeColor=default;fillColor=none;align=left;verticalAlign=top;spacingLeft=4;spacingRight=4;overflow=hidden;rotatable=0;points=[[0,0.5],[1,0.5]];portConstraint=eastwest;fontSize=20;" parent="71" vertex="1">
                    <mxGeometry y="200" width="360" height="140" as="geometry"/>
                </mxCell>
                <mxCell id="82" value="*" style="text;html=1;align=center;verticalAlign=middle;resizable=0;points=[];autosize=1;strokeColor=none;fillColor=none;fontSize=25;" parent="1" vertex="1">
                    <mxGeometry x="-325" y="804" width="30" height="40" as="geometry"/>
                </mxCell>
                <mxCell id="83" value="1" style="text;html=1;align=center;verticalAlign=middle;resizable=0;points=[];autosize=1;strokeColor=none;fillColor=none;fontSize=20;" parent="1" vertex="1">
                    <mxGeometry x="-313" y="675" width="30" height="40" as="geometry"/>
                </mxCell>
                <mxCell id="91" value="*" style="text;html=1;align=center;verticalAlign=middle;resizable=0;points=[];autosize=1;strokeColor=none;fillColor=none;fontSize=20;" parent="1" vertex="1">
                    <mxGeometry x="120" y="910" width="30" height="40" as="geometry"/>
                </mxCell>
                <mxCell id="92" value="*" style="text;html=1;align=center;verticalAlign=middle;resizable=0;points=[];autosize=1;strokeColor=none;fillColor=none;fontSize=30;strokeWidth=1;" parent="1" vertex="1">
                    <mxGeometry x="-150.5" y="910" width="40" height="50" as="geometry"/>
                </mxCell>
                <mxCell id="97" style="edgeStyle=none;rounded=0;html=1;strokeWidth=1;fontSize=20;startArrow=block;startFill=0;endArrow=none;endFill=0;startSize=20;endSize=6;" parent="1" source="98" edge="1">
                    <mxGeometry relative="1" as="geometry">
                        <mxPoint x="-972.5" y="590" as="targetPoint"/>
                    </mxGeometry>
                </mxCell>
                <mxCell id="98" value="Video" style="swimlane;fontStyle=0;childLayout=stackLayout;horizontal=1;startSize=40;fillColor=none;horizontalStack=0;resizeParent=1;resizeParentMax=0;resizeLast=0;collapsible=1;marginBottom=0;fontSize=20;" parent="1" vertex="1">
                    <mxGeometry x="-1132.5" y="630" width="320" height="80" as="geometry"/>
                </mxCell>
                <mxCell id="99" value="path: string" style="text;strokeColor=none;fillColor=none;align=left;verticalAlign=top;spacingLeft=4;spacingRight=4;overflow=hidden;rotatable=0;points=[[0,0.5],[1,0.5]];portConstraint=eastwest;fontSize=20;" parent="98" vertex="1">
                    <mxGeometry y="40" width="320" height="40" as="geometry"/>
                </mxCell>
                <mxCell id="105" style="edgeStyle=none;rounded=0;html=1;strokeWidth=1;fontSize=20;startArrow=none;startFill=0;endArrow=none;endFill=0;startSize=20;endSize=6;" parent="1" source="106" edge="1">
                    <mxGeometry relative="1" as="geometry">
                        <mxPoint x="-972.5" y="590" as="targetPoint"/>
                        <Array as="points">
                            <mxPoint x="-847" y="590"/>
                        </Array>
                    </mxGeometry>
                </mxCell>
                <mxCell id="106" value="MOV" style="html=1;fontSize=20;" parent="1" vertex="1">
                    <mxGeometry x="-902.5" y="525" width="110" height="50" as="geometry"/>
                </mxCell>
                <mxCell id="107" style="edgeStyle=none;rounded=0;html=1;strokeWidth=1;fontSize=20;startArrow=none;startFill=0;endArrow=none;endFill=0;startSize=20;endSize=6;" parent="1" source="108" edge="1">
                    <mxGeometry relative="1" as="geometry">
                        <mxPoint x="-970" y="590" as="targetPoint"/>
                        <Array as="points">
                            <mxPoint x="-1105" y="590"/>
                        </Array>
                    </mxGeometry>
                </mxCell>
                <mxCell id="108" value="MP4" style="html=1;fontSize=20;" parent="1" vertex="1">
                    <mxGeometry x="-1160" y="525" width="110" height="50" as="geometry"/>
                </mxCell>
                <mxCell id="109" value="&lt;font style=&quot;font-size: 16px;&quot;&gt;{disjoint, complete}&lt;/font&gt;" style="text;html=1;align=center;verticalAlign=middle;resizable=0;points=[];autosize=1;strokeColor=none;fillColor=none;fontSize=20;" parent="1" vertex="1">
                    <mxGeometry x="-970" y="590" width="160" height="40" as="geometry"/>
                </mxCell>
                <mxCell id="111" style="edgeStyle=none;rounded=0;html=1;entryX=1.005;entryY=0.146;entryDx=0;entryDy=0;entryPerimeter=0;strokeWidth=1;fontSize=20;startArrow=diamondThin;startFill=0;endArrow=none;endFill=0;startSize=40;endSize=40;exitX=0;exitY=0.5;exitDx=0;exitDy=0;" parent="1" target="99" edge="1">
                    <mxGeometry relative="1" as="geometry">
                        <Array as="points">
                            <mxPoint x="-680" y="440"/>
                            <mxPoint x="-680" y="676"/>
                        </Array>
                        <mxPoint x="-500" y="440" as="sourcePoint"/>
                    </mxGeometry>
                </mxCell>
                <mxCell id="113" value="*" style="text;html=1;align=center;verticalAlign=middle;resizable=0;points=[];autosize=1;strokeColor=none;fillColor=none;fontSize=20;" parent="1" vertex="1">
                    <mxGeometry x="-527" y="444" width="26" height="36" as="geometry"/>
                </mxCell>
                <mxCell id="114" value="0..1" style="text;html=1;align=center;verticalAlign=middle;resizable=0;points=[];autosize=1;strokeColor=none;fillColor=none;fontSize=20;" parent="1" vertex="1">
                    <mxGeometry x="-817.5" y="640" width="60" height="40" as="geometry"/>
                </mxCell>
                <mxCell id="116" value="*" style="text;html=1;align=center;verticalAlign=middle;resizable=0;points=[];autosize=1;strokeColor=none;fillColor=none;fontSize=20;" parent="1" vertex="1">
                    <mxGeometry x="-553" y="804" width="26" height="36" as="geometry"/>
                </mxCell>
                <mxCell id="118" value="Topic" style="swimlane;fontStyle=0;childLayout=stackLayout;horizontal=1;startSize=40;fillColor=none;horizontalStack=0;resizeParent=1;resizeParentMax=0;resizeLast=0;collapsible=1;marginBottom=0;fontSize=20;" parent="1" vertex="1">
                    <mxGeometry x="-185" y="-170" width="360" height="270" as="geometry"/>
                </mxCell>
                <mxCell id="119" value="title: string" style="text;strokeColor=none;fillColor=none;align=left;verticalAlign=top;spacingLeft=4;spacingRight=4;overflow=hidden;rotatable=0;points=[[0,0.5],[1,0.5]];portConstraint=eastwest;fontSize=20;" parent="118" vertex="1">
                    <mxGeometry y="40" width="360" height="40" as="geometry"/>
                </mxCell>
                <mxCell id="120" value="caption: string" style="text;strokeColor=none;fillColor=none;align=left;verticalAlign=top;spacingLeft=4;spacingRight=4;overflow=hidden;rotatable=0;points=[[0,0.5],[1,0.5]];portConstraint=eastwest;fontSize=20;" parent="118" vertex="1">
                    <mxGeometry y="80" width="360" height="40" as="geometry"/>
                </mxCell>
                <mxCell id="130" value="followers: integer" style="text;strokeColor=none;fillColor=none;align=left;verticalAlign=top;spacingLeft=4;spacingRight=4;overflow=hidden;rotatable=0;points=[[0,0.5],[1,0.5]];portConstraint=eastwest;fontSize=20;" parent="118" vertex="1">
                    <mxGeometry y="120" width="360" height="40" as="geometry"/>
                </mxCell>
                <mxCell id="290" value="Constraints&#10;{ title: UNIQUE }&#10;{ caption: NOT NULL }&#10;{followers: DEFAULT 0}" style="text;strokeColor=default;fillColor=none;align=left;verticalAlign=top;spacingLeft=4;spacingRight=4;overflow=hidden;rotatable=0;points=[[0,0.5],[1,0.5]];portConstraint=eastwest;fontSize=20;" parent="118" vertex="1">
                    <mxGeometry y="160" width="360" height="110" as="geometry"/>
                </mxCell>
                <mxCell id="128" value="&lt;span style=&quot;font-size: 20px;&quot;&gt;*&lt;/span&gt;" style="text;html=1;align=center;verticalAlign=middle;resizable=0;points=[];autosize=1;strokeColor=none;fillColor=none;" parent="1" vertex="1">
                    <mxGeometry x="-313" y="222" width="26" height="36" as="geometry"/>
                </mxCell>
                <mxCell id="129" value="*" style="text;html=1;align=center;verticalAlign=middle;resizable=0;points=[];autosize=1;strokeColor=none;fillColor=none;fontSize=20;" parent="1" vertex="1">
                    <mxGeometry x="-215" y="-120" width="30" height="40" as="geometry"/>
                </mxCell>
                <mxCell id="131" value="0..1" style="text;html=1;align=center;verticalAlign=middle;resizable=0;points=[];autosize=1;strokeColor=none;fillColor=none;fontSize=20;" parent="1" vertex="1">
                    <mxGeometry x="346" y="220" width="51" height="36" as="geometry"/>
                </mxCell>
                <mxCell id="132" value="*" style="text;html=1;align=center;verticalAlign=middle;resizable=0;points=[];autosize=1;strokeColor=none;fillColor=none;fontSize=20;" parent="1" vertex="1">
                    <mxGeometry x="-562" y="355" width="26" height="36" as="geometry"/>
                </mxCell>
                <mxCell id="133" style="edgeStyle=none;rounded=0;html=1;entryX=0;entryY=0.5;entryDx=0;entryDy=0;fontSize=20;startArrow=none;startFill=0;endArrow=diamondThin;endFill=0;endSize=40;" parent="1" source="38" target="95" edge="1">
                    <mxGeometry relative="1" as="geometry">
                        <Array as="points">
                            <mxPoint x="-1280" y="160"/>
                            <mxPoint x="-1280" y="979"/>
                        </Array>
                    </mxGeometry>
                </mxCell>
                <mxCell id="134" value="0..1" style="text;html=1;align=center;verticalAlign=middle;resizable=0;points=[];autosize=1;strokeColor=none;fillColor=none;fontSize=20;" parent="1" vertex="1">
                    <mxGeometry x="-871.5" y="120" width="60" height="40" as="geometry"/>
                </mxCell>
                <mxCell id="135" value="*" style="text;html=1;align=center;verticalAlign=middle;resizable=0;points=[];autosize=1;strokeColor=none;fillColor=none;fontSize=20;" parent="1" vertex="1">
                    <mxGeometry x="-536" y="918" width="30" height="40" as="geometry"/>
                </mxCell>
                <mxCell id="137" style="edgeStyle=none;rounded=0;html=1;entryX=1;entryY=0.5;entryDx=0;entryDy=0;fontSize=20;startArrow=none;startFill=0;endArrow=none;endFill=0;endSize=40;exitX=0;exitY=0.5;exitDx=0;exitDy=0;" parent="1" source="9" target="94" edge="1">
                    <mxGeometry relative="1" as="geometry">
                        <mxPoint x="140" y="480" as="sourcePoint"/>
                        <mxPoint x="-140" y="440" as="targetPoint"/>
                    </mxGeometry>
                </mxCell>
                <mxCell id="139" value="*" style="text;html=1;align=center;verticalAlign=middle;resizable=0;points=[];autosize=1;strokeColor=none;fillColor=none;fontSize=20;" parent="1" vertex="1">
                    <mxGeometry x="510" y="760" width="30" height="40" as="geometry"/>
                </mxCell>
                <mxCell id="140" value="*" style="text;html=1;align=center;verticalAlign=middle;resizable=0;points=[];autosize=1;strokeColor=none;fillColor=none;fontSize=20;" parent="1" vertex="1">
                    <mxGeometry x="510" y="650" width="30" height="40" as="geometry"/>
                </mxCell>
                <mxCell id="141" value="Follow" style="text;html=1;align=center;verticalAlign=middle;resizable=0;points=[];autosize=1;strokeColor=none;fillColor=none;fontSize=20;" parent="1" vertex="1">
                    <mxGeometry x="620" y="700" width="80" height="40" as="geometry"/>
                </mxCell>
                <mxCell id="143" style="edgeStyle=none;rounded=0;html=1;fontSize=20;startArrow=none;startFill=0;endArrow=block;endFill=0;endSize=15;entryX=1;entryY=0.5;entryDx=0;entryDy=0;" parent="1" source="4" target="130" edge="1">
                    <mxGeometry relative="1" as="geometry">
                        <mxPoint x="180" y="-80" as="targetPoint"/>
                        <Array as="points">
                            <mxPoint x="640" y="360"/>
                            <mxPoint x="640" y="-30"/>
                        </Array>
                    </mxGeometry>
                </mxCell>
                <mxCell id="146" value="Follow" style="text;html=1;align=center;verticalAlign=middle;resizable=0;points=[];autosize=1;strokeColor=none;fillColor=none;fontSize=20;" parent="1" vertex="1">
                    <mxGeometry x="266" y="-70" width="80" height="40" as="geometry"/>
                </mxCell>
                <mxCell id="164" style="edgeStyle=none;rounded=0;html=1;entryX=1.008;entryY=-0.18;entryDx=0;entryDy=0;fontSize=20;startArrow=none;startFill=0;endArrow=block;endFill=0;endSize=15;exitX=0.141;exitY=0.99;exitDx=0;exitDy=0;exitPerimeter=0;entryPerimeter=0;" parent="1" source="159" target="7" edge="1">
                    <mxGeometry relative="1" as="geometry">
                        <Array as="points">
                            <mxPoint x="800" y="413"/>
                        </Array>
                    </mxGeometry>
                </mxCell>
                <mxCell id="148" value="Admin" style="swimlane;fontStyle=0;childLayout=stackLayout;horizontal=1;startSize=40;fillColor=none;horizontalStack=0;resizeParent=1;resizeParentMax=0;resizeLast=0;collapsible=1;marginBottom=0;fontSize=20;" parent="1" vertex="1">
                    <mxGeometry x="750" y="-300" width="360" height="440" as="geometry"/>
                </mxCell>
                <mxCell id="149" value="name: string" style="text;strokeColor=none;fillColor=none;align=left;verticalAlign=top;spacingLeft=4;spacingRight=4;overflow=hidden;rotatable=0;points=[[0,0.5],[1,0.5]];portConstraint=eastwest;fontSize=20;" parent="148" vertex="1">
                    <mxGeometry y="40" width="360" height="40" as="geometry"/>
                </mxCell>
                <mxCell id="150" value="username: string&#10;" style="text;strokeColor=none;fillColor=none;align=left;verticalAlign=top;spacingLeft=4;spacingRight=4;overflow=hidden;rotatable=0;points=[[0,0.5],[1,0.5]];portConstraint=eastwest;fontSize=20;" parent="148" vertex="1">
                    <mxGeometry y="80" width="360" height="40" as="geometry"/>
                </mxCell>
                <mxCell id="151" value="birthday: date" style="text;strokeColor=none;fillColor=none;align=left;verticalAlign=top;spacingLeft=4;spacingRight=4;overflow=hidden;rotatable=0;points=[[0,0.5],[1,0.5]];portConstraint=eastwest;fontSize=20;" parent="148" vertex="1">
                    <mxGeometry y="120" width="360" height="40" as="geometry"/>
                </mxCell>
                <mxCell id="152" value="country: string" style="text;strokeColor=none;fillColor=none;align=left;verticalAlign=top;spacingLeft=4;spacingRight=4;overflow=hidden;rotatable=0;points=[[0,0.5],[1,0.5]];portConstraint=eastwest;fontSize=20;" parent="148" vertex="1">
                    <mxGeometry y="160" width="360" height="40" as="geometry"/>
                </mxCell>
                <mxCell id="154" value="gender: string" style="text;strokeColor=none;fillColor=none;align=left;verticalAlign=top;spacingLeft=4;spacingRight=4;overflow=hidden;rotatable=0;points=[[0,0.5],[1,0.5]];portConstraint=eastwest;fontSize=20;" parent="148" vertex="1">
                    <mxGeometry y="200" width="360" height="40" as="geometry"/>
                </mxCell>
                <mxCell id="155" value="type: string" style="text;strokeColor=none;fillColor=none;align=left;verticalAlign=top;spacingLeft=4;spacingRight=4;overflow=hidden;rotatable=0;points=[[0,0.5],[1,0.5]];portConstraint=eastwest;fontSize=20;" parent="148" vertex="1">
                    <mxGeometry y="240" width="360" height="40" as="geometry"/>
                </mxCell>
                <mxCell id="156" value="url: URL    " style="text;strokeColor=none;fillColor=none;align=left;verticalAlign=top;spacingLeft=4;spacingRight=4;overflow=hidden;rotatable=0;points=[[0,0.5],[1,0.5]];portConstraint=eastwest;fontSize=20;" parent="148" vertex="1">
                    <mxGeometry y="280" width="360" height="40" as="geometry"/>
                </mxCell>
                <mxCell id="157" value="email: email" style="text;strokeColor=none;fillColor=none;align=left;verticalAlign=top;spacingLeft=4;spacingRight=4;overflow=hidden;rotatable=0;points=[[0,0.5],[1,0.5]];portConstraint=eastwest;fontSize=20;" parent="148" vertex="1">
                    <mxGeometry y="320" width="360" height="40" as="geometry"/>
                </mxCell>
                <mxCell id="158" value="password: string" style="text;strokeColor=none;fillColor=none;align=left;verticalAlign=top;spacingLeft=4;spacingRight=4;overflow=hidden;rotatable=0;points=[[0,0.5],[1,0.5]];portConstraint=eastwest;fontSize=20;" parent="148" vertex="1">
                    <mxGeometry y="360" width="360" height="40" as="geometry"/>
                </mxCell>
                <mxCell id="159" value="reputation: integer" style="text;strokeColor=none;fillColor=none;align=left;verticalAlign=top;spacingLeft=4;spacingRight=4;overflow=hidden;rotatable=0;points=[[0,0.5],[1,0.5]];portConstraint=eastwest;fontSize=20;" parent="148" vertex="1">
                    <mxGeometry y="400" width="360" height="40" as="geometry"/>
                </mxCell>
                <mxCell id="179" style="edgeStyle=none;rounded=0;html=1;entryX=0.803;entryY=-0.001;entryDx=0;entryDy=0;entryPerimeter=0;fontSize=20;startArrow=none;startFill=0;endArrow=none;endFill=0;endSize=15;" parent="1" source="175" target="2" edge="1">
                    <mxGeometry relative="1" as="geometry"/>
                </mxCell>
                <mxCell id="175" value="Topic Proposal" style="swimlane;fontStyle=0;childLayout=stackLayout;horizontal=1;startSize=40;fillColor=none;horizontalStack=0;resizeParent=1;resizeParentMax=0;resizeLast=0;collapsible=1;marginBottom=0;fontSize=20;strokeColor=default;" parent="1" vertex="1">
                    <mxGeometry x="260" y="-400" width="360" height="208" as="geometry"/>
                </mxCell>
                <mxCell id="176" value="title: string" style="text;strokeColor=none;fillColor=none;align=left;verticalAlign=top;spacingLeft=4;spacingRight=4;overflow=hidden;rotatable=0;points=[[0,0.5],[1,0.5]];portConstraint=eastwest;fontSize=20;" parent="175" vertex="1">
                    <mxGeometry y="40" width="360" height="40" as="geometry"/>
                </mxCell>
                <mxCell id="177" value="caption: string" style="text;strokeColor=none;fillColor=none;align=left;verticalAlign=top;spacingLeft=4;spacingRight=4;overflow=hidden;rotatable=0;points=[[0,0.5],[1,0.5]];portConstraint=eastwest;fontSize=20;" parent="175" vertex="1">
                    <mxGeometry y="80" width="360" height="40" as="geometry"/>
                </mxCell>
                <mxCell id="293" value="Constraints&#10;{ title: UNIQUE }&#10;{ caption: NOT NULL }" style="text;strokeColor=default;fillColor=none;align=left;verticalAlign=top;spacingLeft=4;spacingRight=4;overflow=hidden;rotatable=0;points=[[0,0.5],[1,0.5]];portConstraint=eastwest;fontSize=20;" vertex="1" parent="175">
                    <mxGeometry y="120" width="360" height="88" as="geometry"/>
                </mxCell>
                <mxCell id="180" value="*" style="text;html=1;align=center;verticalAlign=middle;resizable=0;points=[];autosize=1;strokeColor=none;fillColor=none;fontSize=20;" parent="1" vertex="1">
                    <mxGeometry x="440" y="-198" width="30" height="40" as="geometry"/>
                </mxCell>
                <mxCell id="181" value="1" style="text;html=1;align=center;verticalAlign=middle;resizable=0;points=[];autosize=1;strokeColor=none;fillColor=none;fontSize=20;" parent="1" vertex="1">
                    <mxGeometry x="440" y="222" width="30" height="40" as="geometry"/>
                </mxCell>
                <mxCell id="184" value="Notifications" style="swimlane;fontStyle=0;childLayout=stackLayout;horizontal=1;startSize=40;fillColor=none;horizontalStack=0;resizeParent=1;resizeParentMax=0;resizeLast=0;collapsible=1;marginBottom=0;fontSize=20;" parent="1" vertex="1">
                    <mxGeometry x="900" y="400" width="360" height="160" as="geometry"/>
                </mxCell>
                <mxCell id="185" value="title: string" style="text;strokeColor=none;fillColor=none;align=left;verticalAlign=top;spacingLeft=4;spacingRight=4;overflow=hidden;rotatable=0;points=[[0,0.5],[1,0.5]];portConstraint=eastwest;fontSize=20;" parent="184" vertex="1">
                    <mxGeometry y="40" width="360" height="40" as="geometry"/>
                </mxCell>
                <mxCell id="186" value="caption: string" style="text;strokeColor=none;fillColor=none;align=left;verticalAlign=top;spacingLeft=4;spacingRight=4;overflow=hidden;rotatable=0;points=[[0,0.5],[1,0.5]];portConstraint=eastwest;fontSize=20;" parent="184" vertex="1">
                    <mxGeometry y="80" width="360" height="40" as="geometry"/>
                </mxCell>
                <mxCell id="190" value="type: string" style="text;strokeColor=none;fillColor=none;align=left;verticalAlign=top;spacingLeft=4;spacingRight=4;overflow=hidden;rotatable=0;points=[[0,0.5],[1,0.5]];portConstraint=eastwest;fontSize=20;" parent="184" vertex="1">
                    <mxGeometry y="120" width="360" height="40" as="geometry"/>
                </mxCell>
                <mxCell id="188" value="is a" style="text;html=1;align=center;verticalAlign=middle;resizable=0;points=[];autosize=1;strokeColor=none;fillColor=none;fontSize=20;" parent="1" vertex="1">
                    <mxGeometry x="650" y="380" width="50" height="40" as="geometry"/>
                </mxCell>
                <mxCell id="193" value="receives" style="text;html=1;align=center;verticalAlign=middle;resizable=0;points=[];autosize=1;strokeColor=none;fillColor=none;fontSize=20;" parent="1" vertex="1">
                    <mxGeometry x="650" y="460" width="100" height="40" as="geometry"/>
                </mxCell>
                <mxCell id="194" value="1" style="text;html=1;align=center;verticalAlign=middle;resizable=0;points=[];autosize=1;strokeColor=none;fillColor=none;fontSize=20;" parent="1" vertex="1">
                    <mxGeometry x="510" y="460" width="30" height="40" as="geometry"/>
                </mxCell>
                <mxCell id="195" value="*" style="text;html=1;align=center;verticalAlign=middle;resizable=0;points=[];autosize=1;strokeColor=none;fillColor=none;fontSize=20;" parent="1" vertex="1">
                    <mxGeometry x="870" y="460" width="30" height="40" as="geometry"/>
                </mxCell>
                <mxCell id="198" value="Proposes" style="text;html=1;align=center;verticalAlign=middle;resizable=0;points=[];autosize=1;strokeColor=none;fillColor=none;fontSize=20;" parent="1" vertex="1">
                    <mxGeometry x="440" y="80" width="110" height="40" as="geometry"/>
                </mxCell>
                <mxCell id="204" value="owns" style="text;html=1;align=center;verticalAlign=middle;resizable=0;points=[];autosize=1;strokeColor=none;fillColor=none;fontSize=20;" parent="1" vertex="1">
                    <mxGeometry x="-30" y="320" width="70" height="40" as="geometry"/>
                </mxCell>
                <mxCell id="205" value="*" style="text;html=1;align=center;verticalAlign=middle;resizable=0;points=[];autosize=1;strokeColor=none;fillColor=none;fontSize=20;" parent="1" vertex="1">
                    <mxGeometry x="-145.5" y="480" width="30" height="40" as="geometry"/>
                </mxCell>
                <mxCell id="206" value="*" style="text;html=1;align=center;verticalAlign=middle;resizable=0;points=[];autosize=1;strokeColor=none;fillColor=none;fontSize=20;" parent="1" vertex="1">
                    <mxGeometry x="125.5" y="480" width="30" height="40" as="geometry"/>
                </mxCell>
                <mxCell id="207" value="upvote" style="text;html=1;align=center;verticalAlign=middle;resizable=0;points=[];autosize=1;strokeColor=none;fillColor=none;fontSize=20;" parent="1" vertex="1">
                    <mxGeometry x="-35" y="480" width="80" height="40" as="geometry"/>
                </mxCell>
                <mxCell id="208" value="downvote" style="text;html=1;align=center;verticalAlign=middle;resizable=0;points=[];autosize=1;strokeColor=none;fillColor=none;fontSize=20;" parent="1" vertex="1">
                    <mxGeometry x="-50" y="405" width="110" height="40" as="geometry"/>
                </mxCell>
                <mxCell id="209" style="edgeStyle=none;rounded=0;html=1;entryX=0;entryY=0.5;entryDx=0;entryDy=0;fontSize=20;startArrow=none;startFill=0;endArrow=none;endFill=0;endSize=15;" parent="1" target="7" edge="1">
                    <mxGeometry relative="1" as="geometry">
                        <mxPoint x="-140" y="440" as="sourcePoint"/>
                    </mxGeometry>
                </mxCell>
                <mxCell id="211" value="*" style="text;html=1;align=center;verticalAlign=middle;resizable=0;points=[];autosize=1;strokeColor=none;fillColor=none;fontSize=20;" parent="1" vertex="1">
                    <mxGeometry x="-140" y="410" width="30" height="40" as="geometry"/>
                </mxCell>
                <mxCell id="214" value="upvote" style="text;html=1;align=center;verticalAlign=middle;resizable=0;points=[];autosize=1;strokeColor=none;fillColor=none;fontSize=20;" parent="1" vertex="1">
                    <mxGeometry x="-45" y="840" width="80" height="40" as="geometry"/>
                </mxCell>
                <mxCell id="215" value="*" style="text;html=1;align=center;verticalAlign=middle;resizable=0;points=[];autosize=1;strokeColor=none;fillColor=none;fontSize=20;" parent="1" vertex="1">
                    <mxGeometry x="120" y="844" width="30" height="40" as="geometry"/>
                </mxCell>
                <mxCell id="216" value="*" style="text;html=1;align=center;verticalAlign=middle;resizable=0;points=[];autosize=1;strokeColor=none;fillColor=none;fontSize=20;" parent="1" vertex="1">
                    <mxGeometry x="-145.5" y="850" width="30" height="40" as="geometry"/>
                </mxCell>
                <mxCell id="218" value="downvote" style="text;html=1;align=center;verticalAlign=middle;resizable=0;points=[];autosize=1;strokeColor=none;fillColor=none;fontSize=20;" parent="1" vertex="1">
                    <mxGeometry x="-65" y="910" width="110" height="40" as="geometry"/>
                </mxCell>
                <mxCell id="221" value="*" style="text;html=1;align=center;verticalAlign=middle;resizable=0;points=[];autosize=1;strokeColor=none;fillColor=none;fontSize=20;" parent="1" vertex="1">
                    <mxGeometry x="-140" y="980" width="30" height="40" as="geometry"/>
                </mxCell>
                <mxCell id="224" value="*" style="text;html=1;align=center;verticalAlign=middle;resizable=0;points=[];autosize=1;strokeColor=none;fillColor=none;fontSize=20;" parent="1" vertex="1">
                    <mxGeometry x="120" y="980" width="30" height="40" as="geometry"/>
                </mxCell>
                <mxCell id="Hnt34Tu0zkYY4mFbcg1Y-230" value="&lt;font style=&quot;font-size: 20px;&quot;&gt;*&lt;/font&gt;" style="text;html=1;align=center;verticalAlign=middle;resizable=0;points=[];autosize=1;strokeColor=none;fillColor=none;" parent="1" vertex="1">
                    <mxGeometry x="175" y="-77" width="30" height="40" as="geometry"/>
                </mxCell>
                <mxCell id="230" value="&lt;font style=&quot;font-size: 24px;&quot;&gt;*&lt;/font&gt;" style="text;html=1;align=center;verticalAlign=middle;resizable=0;points=[];autosize=1;strokeColor=none;fillColor=none;" parent="1" vertex="1">
                    <mxGeometry x="515" y="330" width="30" height="40" as="geometry"/>
                </mxCell>
                <mxCell id="233" style="edgeStyle=none;html=1;endArrow=none;endFill=0;rounded=0;" parent="1" source="231" edge="1">
                    <mxGeometry relative="1" as="geometry">
                        <mxPoint x="-870" y="60" as="targetPoint"/>
                        <Array as="points">
                            <mxPoint x="-1025" y="60"/>
                        </Array>
                    </mxGeometry>
                </mxCell>
                <mxCell id="231" value="JPEG" style="html=1;fontSize=20;" parent="1" vertex="1">
                    <mxGeometry x="-1080" y="-10" width="110" height="50" as="geometry"/>
                </mxCell>
                <mxCell id="240" value="&lt;font style=&quot;font-size: 20px;&quot;&gt;owns&lt;/font&gt;" style="text;html=1;align=center;verticalAlign=middle;resizable=0;points=[];autosize=1;strokeColor=none;fillColor=none;" parent="1" vertex="1">
                    <mxGeometry x="-45" y="970" width="70" height="40" as="geometry"/>
                </mxCell>
                <mxCell id="269" style="edgeStyle=none;rounded=0;html=1;fontSize=20;endArrow=none;endFill=0;exitX=0.999;exitY=0.157;exitDx=0;exitDy=0;exitPerimeter=0;entryX=0;entryY=0.5;entryDx=0;entryDy=0;" parent="1" source="241" target="275" edge="1">
                    <mxGeometry relative="1" as="geometry">
                        <mxPoint x="1440" y="900" as="targetPoint"/>
                    </mxGeometry>
                </mxCell>
                <mxCell id="241" value="Constraints&#10;{ name: NOT NULL}&#10;{username: PRIMARY KEY}&#10;{email: UNIQUE}&#10;{password: NOT NULL}&#10;{reputation: DEFAULT 0}&#10;{followers: DEFAULT 0}&#10;{following: DEFAULT 0}&#10;{blocked: DEFAULT 0}" style="text;strokeColor=default;fillColor=none;align=left;verticalAlign=top;spacingLeft=4;spacingRight=4;overflow=hidden;rotatable=0;points=[[0,0.5],[1,0.5]];portConstraint=eastwest;fontSize=20;" parent="1" vertex="1">
                    <mxGeometry x="150" y="780" width="360" height="240" as="geometry"/>
                </mxCell>
                <mxCell id="256" style="edgeStyle=none;rounded=0;html=1;fontSize=20;endArrow=none;endFill=0;" parent="1" edge="1">
                    <mxGeometry relative="1" as="geometry">
                        <mxPoint x="-140" y="880" as="sourcePoint"/>
                        <mxPoint x="150" y="880" as="targetPoint"/>
                    </mxGeometry>
                </mxCell>
                <mxCell id="258" style="edgeStyle=none;rounded=0;html=1;entryX=-0.01;entryY=0.67;entryDx=0;entryDy=0;entryPerimeter=0;fontSize=20;endArrow=none;endFill=0;" parent="1" target="241" edge="1">
                    <mxGeometry relative="1" as="geometry">
                        <mxPoint x="-140" y="941" as="sourcePoint"/>
                    </mxGeometry>
                </mxCell>
                <mxCell id="262" style="edgeStyle=none;rounded=0;html=1;entryX=-0.006;entryY=0.83;entryDx=0;entryDy=0;entryPerimeter=0;fontSize=20;endArrow=none;endFill=0;" parent="1" source="95" target="241" edge="1">
                    <mxGeometry relative="1" as="geometry"/>
                </mxCell>
                <mxCell id="264" style="edgeStyle=none;rounded=0;html=1;fontSize=20;endArrow=none;endFill=0;" parent="1" source="117" edge="1">
                    <mxGeometry relative="1" as="geometry">
                        <mxPoint x="620" y="680" as="targetPoint"/>
                    </mxGeometry>
                </mxCell>
                <mxCell id="266" style="edgeStyle=none;rounded=0;html=1;fontSize=20;endArrow=none;endFill=0;" parent="1" source="255" edge="1">
                    <mxGeometry relative="1" as="geometry">
                        <mxPoint x="620" y="760" as="targetPoint"/>
                    </mxGeometry>
                </mxCell>
                <mxCell id="268" style="edgeStyle=none;rounded=0;html=1;fontSize=20;endArrow=none;endFill=0;" parent="1" edge="1">
                    <mxGeometry relative="1" as="geometry">
                        <mxPoint x="620" y="760" as="targetPoint"/>
                        <mxPoint x="620" y="680" as="sourcePoint"/>
                    </mxGeometry>
                </mxCell>
                <mxCell id="270" style="edgeStyle=none;rounded=0;html=1;fontSize=20;endArrow=none;endFill=0;entryX=0.331;entryY=-0.02;entryDx=0;entryDy=0;entryPerimeter=0;" parent="1" source="154" target="271" edge="1">
                    <mxGeometry relative="1" as="geometry">
                        <mxPoint x="1440" y="440" as="targetPoint"/>
                        <Array as="points">
                            <mxPoint x="1440" y="-80"/>
                        </Array>
                    </mxGeometry>
                </mxCell>
                <mxCell id="271" value="Contact Us" style="swimlane;fontStyle=0;childLayout=stackLayout;horizontal=1;startSize=40;fillColor=none;horizontalStack=0;resizeParent=1;resizeParentMax=0;resizeLast=0;collapsible=1;marginBottom=0;fontSize=20;" parent="1" vertex="1">
                    <mxGeometry x="1320" y="640" width="360" height="240" as="geometry"/>
                </mxCell>
                <mxCell id="272" value="first_name: string" style="text;strokeColor=none;fillColor=none;align=left;verticalAlign=top;spacingLeft=4;spacingRight=4;overflow=hidden;rotatable=0;points=[[0,0.5],[1,0.5]];portConstraint=eastwest;fontSize=20;" parent="271" vertex="1">
                    <mxGeometry y="40" width="360" height="40" as="geometry"/>
                </mxCell>
                <mxCell id="273" value="last_name: string" style="text;strokeColor=none;fillColor=none;align=left;verticalAlign=top;spacingLeft=4;spacingRight=4;overflow=hidden;rotatable=0;points=[[0,0.5],[1,0.5]];portConstraint=eastwest;fontSize=20;" parent="271" vertex="1">
                    <mxGeometry y="80" width="360" height="40" as="geometry"/>
                </mxCell>
                <mxCell id="274" value="email: email" style="text;strokeColor=none;fillColor=none;align=left;verticalAlign=top;spacingLeft=4;spacingRight=4;overflow=hidden;rotatable=0;points=[[0,0.5],[1,0.5]];portConstraint=eastwest;fontSize=20;" parent="271" vertex="1">
                    <mxGeometry y="120" width="360" height="40" as="geometry"/>
                </mxCell>
                <mxCell id="275" value="message: string" style="text;strokeColor=none;fillColor=none;align=left;verticalAlign=top;spacingLeft=4;spacingRight=4;overflow=hidden;rotatable=0;points=[[0,0.5],[1,0.5]];portConstraint=eastwest;fontSize=20;" parent="271" vertex="1">
                    <mxGeometry y="160" width="360" height="40" as="geometry"/>
                </mxCell>
                <mxCell id="276" value="date: date" style="text;strokeColor=none;fillColor=none;align=left;verticalAlign=top;spacingLeft=4;spacingRight=4;overflow=hidden;rotatable=0;points=[[0,0.5],[1,0.5]];portConstraint=eastwest;fontSize=20;" parent="271" vertex="1">
                    <mxGeometry y="200" width="360" height="40" as="geometry"/>
                </mxCell>
                <mxCell id="284" value="*" style="text;html=1;align=center;verticalAlign=middle;resizable=0;points=[];autosize=1;strokeColor=none;fillColor=none;fontSize=20;" parent="1" vertex="1">
                    <mxGeometry x="1110" y="-120" width="30" height="40" as="geometry"/>
                </mxCell>
                <mxCell id="285" value="*" style="text;html=1;align=center;verticalAlign=middle;resizable=0;points=[];autosize=1;strokeColor=none;fillColor=none;fontSize=20;" parent="1" vertex="1">
                    <mxGeometry x="1445" y="600" width="30" height="40" as="geometry"/>
                </mxCell>
                <mxCell id="286" value="Answers" style="text;html=1;align=center;verticalAlign=middle;resizable=0;points=[];autosize=1;strokeColor=none;fillColor=none;fontSize=20;" parent="1" vertex="1">
                    <mxGeometry x="1440" y="290" width="100" height="40" as="geometry"/>
                </mxCell>
                <mxCell id="287" value="Sends" style="text;html=1;align=center;verticalAlign=middle;resizable=0;points=[];autosize=1;strokeColor=none;fillColor=none;fontSize=20;" parent="1" vertex="1">
                    <mxGeometry x="830" y="820" width="80" height="40" as="geometry"/>
                </mxCell>
                <mxCell id="288" value="*" style="text;html=1;align=center;verticalAlign=middle;resizable=0;points=[];autosize=1;strokeColor=none;fillColor=none;fontSize=20;" parent="1" vertex="1">
                    <mxGeometry x="515" y="820" width="30" height="40" as="geometry"/>
                </mxCell>
                <mxCell id="289" value="*" style="text;html=1;align=center;verticalAlign=middle;resizable=0;points=[];autosize=1;strokeColor=none;fillColor=none;fontSize=20;" parent="1" vertex="1">
                    <mxGeometry x="1290" y="820" width="30" height="40" as="geometry"/>
                </mxCell>
                <mxCell id="291" value="*" style="text;html=1;align=center;verticalAlign=middle;resizable=0;points=[];autosize=1;strokeColor=none;fillColor=none;fontSize=20;" parent="1" vertex="1">
                    <mxGeometry x="115" y="400" width="30" height="40" as="geometry"/>
                </mxCell>
            </root>
        </mxGraphModel>
    </diagram>
</mxfile>